<svg width="371" height="194" viewBox="0 0 371 194" fill="none" xmlns="http://www.w3.org/2000/svg">
<path fill-rule="evenodd" clip-rule="evenodd" d="M0.5 194H89.5V107.769L201.5 194H371L168.072 115.785C174.234 114.083 179 102.516 179 88.5C179 74.8899 174.506 63.589 168.604 61.388L370 0H199L89.5 64.5V0H0V194H0.5ZM161 63.7982V113.059L89.5 85.5L161.121 63.6689C161.081 63.7115 161.04 63.7546 161 63.7982ZM193.254 101V95.2131L197.617 90.6522L206.32 101H209L199.143 88.9734L208.36 79H205.772L193.254 92.2827V79H191V101H193.254ZM266.254 101V95.2131L270.617 90.6522L279.32 101H282L272.143 88.9734L281.36 79H278.772L266.254 92.2827V79H264V101H266.254ZM335.845 107C335.104 107 334.393 106.878 333.712 106.635C333.051 106.392 332.481 106.028 332 105.541L332.991 103.931C333.392 104.316 333.822 104.61 334.283 104.812C334.763 105.035 335.294 105.146 335.875 105.146C336.575 105.146 337.176 104.944 337.677 104.539C338.197 104.154 338.688 103.465 339.148 102.472L339.829 100.912L332.781 85H335.004L340.954 98.5582L346.898 85H349L341.101 102.867C340.66 103.901 340.17 104.721 339.629 105.329C339.108 105.936 338.538 106.362 337.917 106.605C337.296 106.868 336.605 107 335.845 107ZM317 99.5676V101H331V99.2019H319.972L330.771 86.4019V85H317.196V86.7981H327.828L317 99.5676ZM308.448 101C306.94 101 305.513 100.821 304.167 100.462C302.821 100.083 301.766 99.6143 301 99.0561L302.114 97.3813C302.856 97.8598 303.807 98.2785 304.968 98.6374C306.128 98.9763 307.346 99.1458 308.622 99.1458C310.362 99.1458 311.615 98.9165 312.381 98.4579C313.146 97.9794 313.529 97.3514 313.529 96.5738C313.529 95.9956 313.309 95.547 312.868 95.228C312.45 94.8891 311.893 94.6399 311.197 94.4804C310.501 94.3009 309.724 94.1514 308.865 94.0318C308.007 93.9121 307.148 93.7726 306.29 93.6131C305.455 93.4536 304.689 93.2243 303.993 92.9252C303.297 92.6062 302.729 92.1776 302.288 91.6393C301.87 91.1009 301.661 90.3832 301.661 89.486C301.661 88.6287 301.94 87.8611 302.497 87.1832C303.053 86.5053 303.865 85.9769 304.933 85.5981C306.023 85.1994 307.346 85 308.9 85C310.084 85 311.267 85.1396 312.45 85.4187C313.633 85.6779 314.608 86.0268 315.374 86.4654L314.295 88.1701C313.483 87.6916 312.613 87.3526 311.684 87.1533C310.756 86.934 309.828 86.8243 308.9 86.8243C307.253 86.8243 306.035 87.0735 305.246 87.572C304.48 88.0505 304.097 88.6685 304.097 89.4262C304.097 90.0243 304.306 90.4928 304.724 90.8318C305.165 91.1707 305.733 91.4399 306.429 91.6393C307.148 91.8187 307.926 91.9682 308.761 92.0879C309.619 92.2075 310.466 92.357 311.302 92.5364C312.16 92.696 312.937 92.9252 313.633 93.2243C314.353 93.5034 314.921 93.9121 315.339 94.4505C315.78 94.9688 316 95.6567 316 96.514C316 97.4312 315.698 98.2287 315.095 98.9065C314.515 99.5645 313.657 100.083 312.52 100.462C311.406 100.821 310.049 101 308.448 101ZM287.131 99.9832C288.423 100.661 289.874 101 291.484 101C293.115 101 294.577 100.661 295.869 99.9832C297.161 99.2854 298.168 98.3383 298.888 97.1421C299.629 95.9259 300 94.5402 300 92.985C300 91.41 299.629 90.0243 298.888 88.828C298.168 87.6318 297.161 86.6947 295.869 86.0168C294.598 85.3389 293.136 85 291.484 85C289.853 85 288.402 85.3389 287.131 86.0168C285.86 86.6947 284.854 87.6318 284.112 88.828C283.371 90.0243 283 91.41 283 92.985C283 94.5402 283.371 95.9259 284.112 97.1421C284.854 98.3383 285.86 99.2854 287.131 99.9832ZM294.693 98.3682C293.761 98.8667 292.692 99.1159 291.484 99.1159C290.319 99.1159 289.27 98.8667 288.338 98.3682C287.406 97.8498 286.665 97.1321 286.114 96.215C285.563 95.2779 285.288 94.2012 285.288 92.985C285.288 91.7489 285.563 90.6723 286.114 89.7551C286.665 88.838 287.406 88.1302 288.338 87.6318C289.27 87.1134 290.33 86.8542 291.516 86.8542C292.702 86.8542 293.761 87.1134 294.693 87.6318C295.626 88.1302 296.356 88.838 296.886 89.7551C297.437 90.6723 297.712 91.7489 297.712 92.985C297.712 94.2012 297.437 95.2779 296.886 96.215C296.356 97.1321 295.626 97.8498 294.693 98.3682ZM242.983 101C241.279 101 239.742 100.661 238.374 99.9832C237.028 99.2854 235.963 98.3383 235.178 97.1421C234.393 95.9259 234 94.5402 234 92.985C234 91.41 234.393 90.0243 235.178 88.828C235.963 87.6318 237.028 86.6947 238.374 86.0168C239.72 85.3389 241.256 85 242.983 85C244.733 85 246.28 85.3389 247.626 86.0168C248.994 86.6947 250.06 87.6318 250.822 88.828C251.607 90.0243 252 91.41 252 92.985C252 94.5402 251.607 95.9259 250.822 97.1421C250.06 98.3383 248.994 99.2854 247.626 99.9832C246.258 100.661 244.71 101 242.983 101ZM242.983 99.1159C244.262 99.1159 245.394 98.8667 246.381 98.3682C247.368 97.8498 248.142 97.1321 248.703 96.215C249.286 95.2779 249.578 94.2012 249.578 92.985C249.578 91.7489 249.286 90.6723 248.703 89.7551C248.142 88.838 247.368 88.1302 246.381 87.6318C245.394 87.1134 244.273 86.8542 243.017 86.8542C241.761 86.8542 240.639 87.1134 239.652 87.6318C238.665 88.1302 237.88 88.838 237.297 89.7551C236.714 90.6723 236.422 91.7489 236.422 92.985C236.422 94.2012 236.714 95.2779 237.297 96.215C237.88 97.1321 238.665 97.8498 239.652 98.3682C240.639 98.8667 241.75 99.1159 242.983 99.1159ZM227.992 85.7547C227.066 85.2516 225.986 85 224.752 85C223.286 85 222.023 85.3321 220.963 85.9962C220.111 86.5135 219.446 87.1931 218.967 88.035V85.1509H217V101H219.054V92.6679C219.054 91.4604 219.266 90.434 219.69 89.5887C220.134 88.7233 220.751 88.0692 221.541 87.6264C222.351 87.1635 223.296 86.9321 224.376 86.9321C225.822 86.9321 226.941 87.3648 227.731 88.2302C228.541 89.0755 228.946 90.3333 228.946 92.0038V101H231V91.7924C231 90.2629 230.73 88.995 230.19 87.9887C229.669 86.9824 228.937 86.2377 227.992 85.7547ZM210.462 101V86.1415H212.51V101H210.462ZM211.5 82.8585C211.077 82.8585 210.721 82.717 210.433 82.434C210.144 82.1509 210 81.8113 210 81.4151C210 81.0189 210.144 80.6887 210.433 80.4245C210.721 80.1415 211.077 80 211.5 80C211.923 80 212.279 80.1321 212.567 80.3962C212.856 80.6604 213 80.9906 213 81.3868C213 81.8019 212.856 82.1509 212.567 82.434C212.298 82.717 211.942 82.8585 211.5 82.8585ZM353.156 96.5566V101H351V79H353.156V93.9183L362.69 85.434H365.332L358.525 91.7925L366 101H363.358L356.919 93.1613L353.156 96.5566Z" fill="#FBF9F4"/>
</svg>
